<svg xmlns="http://www.w3.org/2000/svg" viewBox="0 0 539.92 116.8"><defs><style>.cls-1{fill:#edebdf;}</style></defs><g id="Layer_2" data-name="Layer 2"><g id="Layer_1-2" data-name="Layer 1"><path class="cls-1" d="M24.66,1.51,0,82.91H24.66L26.8,69.33l10.32-.51,12.33.25.12.38,2.27,13.46H77.38L55.11,1.51Zm14,49.32-7.05-.13L38.63,24h1.51L45.67,50.7Z"/><path class="cls-1" d="M125.06,1.38l-38.62.13L87.7,59l-1.26,23.9h25.29l-.88-23H117c21.89,0,36.49-13.09,36.49-32.59C153.5,10.69,143.31,1.38,125.06,1.38Zm-4.53,40.9-9.43-.51.5-22.52,4.53-.38c7.55.38,11,3.53,11,11C127.08,36.11,125.06,39.76,120.53,42.28Z"/><path class="cls-1" d="M284,48.81C284.1,57.37,280.82,61,272.9,61S262,57.37,262.08,48.81l1.13-47.52H237.92l.75,38-.37,13c-.51,18.5,11.57,28.69,33.59,28.69,22.77,0,35.48-10.19,35.61-28.69l.12-13,.88-38H282.84Z"/><polygon class="cls-1" points="357.86 20.89 377.87 21.64 379.5 3.27 378.12 1.51 319.74 1.51 321 59.01 319.74 82.92 377.11 82.92 378.62 64.55 377.24 62.78 356.35 63.54 344.27 63.54 344.02 56.49 344.15 51.71 355.47 51.71 370.07 52.09 371.58 33.72 370.19 31.96 357.11 32.34 344.65 32.34 344.9 20.89 357.86 20.89"/><path class="cls-1" d="M442.58,41C450.63,37.24,455,30.57,455,22.27c0-13.71-11.33-20.89-29.45-20.89l-36.36.13L390.49,59l-1.26,23.9c8.94.51,20.76.89,27,.89,26.93,0,41.4-7.18,41.4-24.41C457.68,50,453.27,44,442.58,41Zm-28.94-22.9h1.13c11.33,0,14.6,1.89,14.6,7.8,0,5-2.14,7.67-6.79,9.18l-9.44-.37Zm7.43,49.07c-1.89,0-4.91-.25-8.06-.51l-.37-10.19.12-5.53L425,50.7c5,1.64,7.17,3.78,7.17,7.68C432.14,64.17,427.86,67.19,421.07,67.19Z"/><path class="cls-1" d="M502.8,0C476.88,0,462,15.85,462,43.66c0,25.92,13.46,40.76,37.11,40.76,25.92,0,40.77-16.1,40.77-44.28C539.92,14.59,526.46,0,502.8,0Zm14.72,47c-6.65,8.83-13.47,14.74-16.93,16.66-2.58-1.93-8-6.07-10.34-9.18a42.8,42.8,0,0,1-6.16-10.2c-1.46-3.49-3.44-9.44-1.73-12.89a11,11,0,0,1,9.76-6.43c4.22-.26,10,3.77,10.29,8,4-5.82,8.78-8.37,12.93-7.18C525.29,28.55,523.13,39.51,517.52,47Z"/><path class="cls-1" d="M300.56,89.45a3.46,3.46,0,0,0-3-.48c-9.42,2.7-22.35,5-32.94,3.87C251.71,91.41,241.1,87,230.52,74c-5.12-7-11-16-15.62-23.2,8.55-6,13.58-14.72,13.58-24.28,0-16.23-10.31-25.17-28.56-25.17l-38.62.13L162.56,59l-1.26,23.9h25.29l-.88-24.28h8.43c3.39,8.05,10.65,20.15,10.65,20.15,7.75,14.23,17.7,24,25.73,29.35,10.58,7.06,30.67,9.84,43.51,8.23,9.41-1.17,21.17-3.53,25.87-7,3.29-2.47,2.86-12.38,2.35-16.47A6,6,0,0,0,300.56,89.45ZM195.14,40.77,186,40.26l.5-21,4.53-.38c7.68.38,10.95,3.4,10.95,10.19C201.94,35.1,199.92,38.63,195.14,40.77Z"/></g></g></svg>