<svg xmlns="http://www.w3.org/2000/svg" viewBox="0 0 1195.67 268.58"><defs><style>.cls-1{fill:#edebdf;}</style></defs><g id="Layer_2" data-name="Layer 2"><g id="Layer_1-2" data-name="Layer 1"><path class="cls-1" d="M348.83,56.34c0-.19,0-.39-.05-.58-.33-1.87-.7-3.74-1.15-5.58a92.56,92.56,0,0,0-4.4-13.47,134.37,134.37,0,0,0-8.49-12.66l-.51-.64c-6.47-5-12.84-9.95-19.67-14.24-7.34-1.22-15-1.37-22.28-1.89-15.34-1.3-30.76-.62-46.15-.94-6.28-.42-42.27.91-48.59.88a7.49,7.49,0,0,0-2,3l0,0c-.17,3.14-.65,6.29-1,9.47.09.82.17,1.64.22,2.46.14,13.1-.1,26.22,0,39.32.27,9.14,1,18.25.85,27.4-.86,13.35-.49,26.72-.39,40.09-.39,7.85-.72,15.69-.46,23.55,0,4.78-1.89,34-1,36.64,4.29,1,7.14.92,11.54,1.17,4.09.41,17.62-1.31,20.35-1,4.86.62,10.66,2.18,16.61,1.28,2.77-.24,3.8.48,6.81.48,6.48,0,4.82-1.56,5.06-3.88.84-8.24.15-16.59.8-24.85.32-4.08.73-8.15,1.29-12.2.28-2,.74-8.43.87-9.71-.28-.35.64-1.26,1.12-1.21,1.2,0,24.67-1.52,30.93-3,3.14-.54,5.91-2.19,8.89-3.22,4.71-1.53,8.9-3.93,14.67-7.73,4.09-2.55,7.51-6.06,10.91-9.43,3.55-3.82,2.26-2,7.09-7.6,1.19-1.13,11.16-14.21,13.91-21.85.91-2.49,1.85-5,2.76-7.47a2.07,2.07,0,0,1-.28-1.56A85.16,85.16,0,0,0,348.83,56.34ZM289.51,77.5c-.16.77-2.71,11.81-6.38,14.51-2.89,2.91-12.51,3.64-18.1,3.58-3.1.23-6.54-.79-9.54,0,.39-3-.6-46.13-1.18-47.64,2.09.14,4.16.43,6.24.69,5.43,0,8.55.14,12,1.16,3.21,1.16,6.58,2.11,9.43,4,4.35,3.13,7.78,8.2,7.48,12.4C289.41,69.54,290.22,74.24,289.51,77.5Z"/><path class="cls-1" d="M669.13,241.9l0,0h0Z"/><path class="cls-1" d="M677.22,214.5c.09-2.85-.68-5.64-.57-8.49.17-3.58-.55-4.62-.59-7.8-.15-1.32-15.31,1.74-18.1,2.49-5,.93-28.82,3.78-35.81,4.55-6.83,1.18-13.82.53-20.72.69-3.48.5-17.76.77-21.17.1-.47,0-18.39-3-28.22-10a68.88,68.88,0,0,1-7.3-4.43c-2.9-2-6-3.79-8.46-6.28-3.1-2.3-6.41-4.33-9.19-7-3.05-3.55-6.16-7-8.86-10.86a143.72,143.72,0,0,1-12.16-18.16c-3.64-6.68-19.16-30.6-24.51-34.72l-3.24-4.84c9.52-2.34,18.39-11,23.8-18.56,3.73-5,8-22.24,9-25.93.3-6.17.44-15.61-.83-19.84-1.06-6.49-2.44-13.92-7.29-21.34-.93-1.5-5.95-8-7.93-9.36-2.19-1.08-4-2.73-6.17-3.9s-10.55-5.94-12.73-6.19c-2.73-.67-20.24-2.56-23.75-2.68-2.57-.77-11.07-.51-15.63-.54-1.4,0-28.34,1.15-37.92,1.23-7.65.32-15.23,1.57-22.92,1.22-2.09.07-9.81.55-11.57.62a10.48,10.48,0,0,0-2,.93c-.18,2.75-2.73,35.14-2.87,42.34-.06,8,.09,49.47.2,62.08-.18,8.38-1.54,45.8-1.55,56.14,0,6,.77,21.68.87,23.58.61-.15,1.4-.3,2.68-.52,8.8-1.23,41.6-1.39,44.89-1.89,1.74.11,8.23-.53,10.69-.34,1.44-.44,1.16-4.59,2.56-6.47-.47-3.71-1.3-7.39-1.54-11.13-.51-8.05-1-16.1-1.51-24.15-.09-1.4-.4-6.76.09-6.77,2-.23,14.11-1.37,16.52-1.52.64,1,5.55,17,8.32,23.53,4.63,9.21,10.6,17.67,16.64,26,2.94,4.86,6.18,9.51,9.47,14.14a107.31,107.31,0,0,0,8.48,11.29c1.35,2.11,3.59,3.38,5.14,5.33A185,185,0,0,0,503,237.9c5.27,4.09,20.11,13.37,22.93,14.82,3.75,1.9,17.85,7.67,21.15,8.61,3.84,1.23,11.94,2.7,13.62,3.15,2.28.35,21.32,4.1,28.75,3.84,7,.31,14.15.62,21-.87,5.18-1.22,26.26-7.49,30-9.63a118.1,118.1,0,0,1,10.85-5.8c4.07-2.41,8.83-3.4,12.71-6.15a39.67,39.67,0,0,0,5-3.93l-.76.56,0,0-.46.34,0,0,0,0-.07,0,0,0-.19.14.24-.17c.35-.26.69-.54,1-.81-.16.14-.34.29-.58.47l.71-.52a3.45,3.45,0,0,1,.28-.26A33.8,33.8,0,0,0,675.7,235c1-1.12,1-2.56,1.08-4C677.44,225.55,677.16,220,677.22,214.5ZM412.82,43.85c-.32,2.66-.65,5.31-1,8-.28.18-.55.35-.82.54,0-.23-.05-.45-.08-.68.07-1.33.15-2.65.23-4s0-2.57,0-3.86Zm32.64,42.4c-5.41,6.26-18.83,5.78-25.93,6.83a1.55,1.55,0,0,1-1.29-1.58c0-8.48-.29-25.92-.29-26.16-.18-3.74-.3-7.47-.38-11.2,0-1.79-.17-9.67-.53-10.31,6.15-.06,12.3-.15,18.37.91,1.07.28,6,1.36,8.36,3.08,4.83,3.43,7.18,12.14,7.86,15.8.16,4.81.2,9.66-.09,14.46a24.47,24.47,0,0,1-.69,3.51A63,63,0,0,0,445.46,86.25Zm47.1,11.36c-3.72,3.06-6.55,5.33-9.52,7.53a46.77,46.77,0,0,0,5.73-6.69c1.85-1.84,3.81-3.63,5.65-5.52a16.22,16.22,0,0,1-1.68,4.47Zm170.18,139a3.52,3.52,0,0,1-.39.16,42.75,42.75,0,0,0-11,7.85l-4.2,1.47c.09-.09.19-.18.27-.27,5.35-2.25,9.83-6.28,13.77-10.48q1-1.11,2-2.31C663.09,234.2,663,235.39,662.74,236.58Z"/><path class="cls-1" d="M653.23,170.33h0C653.33,170.27,653.38,170.25,653.23,170.33Z"/><path class="cls-1" d="M690.74,5.26c-5.9.59-11.92-.07-17.83-.21-5.58-.13-11.17,0-16.75.06-9.38.11-18.7,0-27.93-1.39-2,2.26,1,40.08-.68,50.92.17,8.46-.26,16.94.24,25.39a73.13,73.13,0,0,1,.47,9c.75,5.21.51,10.47.53,15.72-.07,3.67.23,7.4-.61,11-.22,1.48-1.59,8.29-2.85,10.49a8.36,8.36,0,0,1-2.12,3,14.21,14.21,0,0,1-1.67,1.63c-7.35,5.88-19.16,3-25.86-2.56-4.26-3.53-5.4-9.26-6.08-14.49-.11-.85-.18-1.7-.27-2.56,0,0-.26-15.81-.23-16.23.62-3.16,0-6.42.9-9.55,0-2.63.71-13,1.09-15.54.23-2.71.66-15.92.94-19.81,1.32-9.22-.5-18.48-.16-27.73,0-5.32,1-10.61.42-15.93-.18-.74-.15-1.86-1.09-1.93-5.21,0-10.78-.56-15.63.77C570.55,7,565.2,6,560,6.35c-3.51.36-7,.14-10.56.31a92.93,92.93,0,0,1-15.63-.76s0,0,0-.05a15.3,15.3,0,0,1-2-.24c-.27,9.39-.31,18.8-.06,28.19-.3,5.84.3,11.62.65,17.43a56.86,56.86,0,0,1-.69,9.21,89.7,89.7,0,0,0,0,20.39c.3,4.9,0,9.84.12,14.75a65.54,65.54,0,0,1-.58,9.9c0,5.14-.12,10.29.07,15.43.08,1.78.59,3.31.51,3.83a30.22,30.22,0,0,0,.64,5.43c3.54,10.93,8.2,21.42,15.09,30.74,3.64,4.93,8.5,8.59,13.2,12.43,1.79,1.1,3.6,2.18,5.5,3.11a51.49,51.49,0,0,0,5.12,3,34.92,34.92,0,0,0,6.08,2A27.52,27.52,0,0,0,588.17,183a11.77,11.77,0,0,0,3-.5c1.37-.21,2.77,0,4.15-.13a6.41,6.41,0,0,0,2.24-.45l-.13.05a31.2,31.2,0,0,1,5.21-.18,16.44,16.44,0,0,0,4.1.79c2.89,0,5.67-.89,8.51-1.31,2.52-.65,5.16-.27,7.71-.73,2.86-.83,5.79-1.32,8.66-2.11a32,32,0,0,0,5.6-2.11l1.09-.47.84-.36c2-.64,4.16-.7,6.23-1.18a29.5,29.5,0,0,0,7.81-4l-.25.14a65.27,65.27,0,0,0,11.41-8.87c7-6.85,6.51-6.64,9.62-10.71a42.4,42.4,0,0,0,9.88-17.63c1.52-5.36,2.85-10.55,2.46-16.07a191.26,191.26,0,0,0,2-19.26c.77-10.56,1.3-21.14,1.84-31.71-.1-11.64.07-23.26.6-34.88Q690.79,18.3,690.74,5.26Zm-113.55,113c0-1,0-2,0-3.07a.34.34,0,0,0-.06-.32c0-.77,0-1.53,0-2.29l.09-1.37c.09-.09.18-.2.28-.29a69.64,69.64,0,0,0,.1,7.08Zm77.44,39.86-.08.11c-.21.21-.28.29-.23.26l0,0a48.52,48.52,0,0,1-7.56,4.63l1.52-1.59a44.92,44.92,0,0,0,6.26-4.41,8.07,8.07,0,0,0,.14,1Z"/><path class="cls-1" d="M638.88,108.17a1,1,0,0,0-.06.25,1.43,1.43,0,0,0,.08-.29Z"/><path class="cls-1" d="M765.68,54.08a64.16,64.16,0,0,0,11.59-.43c4.4-.84,47-3.08,50.15-3.23,3.67-.17,7.41-.62,11.05-.45h0c.28-6.41.52-12.81.87-19.22.32-6,.5-12,1.09-17.91.19-2,.38-4,.63-6a56.62,56.62,0,0,0-9.43-.14A239.75,239.75,0,0,1,799.93,6c-.58,0-5.29.65-7.06.78s-25.38.94-35.38.56c-12.62-.48-25.43.2-37.91-1.59-1.07,0-7.21-.64-7.26-.7-.21.18-.43.36-.63.55A218.74,218.74,0,0,1,711,32.93c-.65,7.77-1.18,41.38-.86,46.19.48,6.2,1.74,29.55,1.67,35,0,7.49-.08,15,.45,22.43-2.24,14.77,0,29.81-1.8,44.61l2.78,3.47c3.23.24,6.46.57,9.71.63,5.58.1,11.19.41,16.76.66,2.72.12,5.42.32,8.11.56,1.67-.16,21.08-.52,29.17.23,10.4,1.87,54.65-.33,56.42-.42,1.49-.49,2.88-.13,4.08-1.15.33-3.82.71-6.5,1.19-10.32.18-3.91.34-7.83.58-11.74.32-5.33,1-10.57,1.63-15.86.08-2.47,1.2-7.57-1.67-7.36-5.29.1-23.11.54-28.38.21-8.14,0-40.56-1.93-48.67-1.93.06-3.38-.53-6.73-.53-10.12-.13-4,0-8,0-12,5,1.79,36.95,2.28,39.83,2.17,2.54,0,20.78-.45,24.06-1.7.82-1.13,1.47-19.51,1.44-24.72V74a6,6,0,0,0-.7-3.55c-.1-.15-.19-.1-.5-.11s-.58,0-.86,0c-3.2.32-6.42.47-9.62.76-3.09.47-38.41,1.66-45.4.7.23,0-5.91-.11-6.67.41,1.05-6,1.91-12.09,2.36-18.19Zm3.37-25.95c3.2.08,6.4.12,9.6.14-.28.3-.56.6-.82.91l-.64.1-.09,0a59.47,59.47,0,0,0-8.12-.57C769,28.53,769,28.33,769.05,28.13Zm43.73,53.73c.8-.09,1.6-.15,2.4-.16a1.68,1.68,0,0,0,.18.36,4.85,4.85,0,0,0-.49.11c-2.64,0-5.31.37-7.94.39l-2.48.08C807.2,82.24,810,82.1,812.78,81.86Z"/><path class="cls-1" d="M1007.05,109.36c-2-2.65-3.93-5.46-6.6-7.48-2.25-1.65-5-2.29-7.59-3.14a25.05,25.05,0,0,0-7-4l-.14,0a53.62,53.62,0,0,0,13.65-14.13c2.35-4.2,5-8.44,6.11-13.17a70.42,70.42,0,0,0,1.22-29.08,37.34,37.34,0,0,0-2.28-6.55c-2.22-4.2-4.33-8.65-7.64-12.11a30.9,30.9,0,0,0-11.25-7.09c-4-1.58-8.47-2.62-12.21-4.83l-.21-.15c-3.55-.92-7.11-1.7-10.76-2.3a128.82,128.82,0,0,0-14.29-1.95L942,3.65c-5.43.8-10.8,2.05-16.31,2-5,.06-10.06,0-15.09,0l-.71.06C894.9,7,880,8.31,865,7l-.06,0c-.59,5.56-.85,11.17-1,16.76-.21,6.32-.29,12.64-.66,18.94-.23,4.08-.54,8.15-.79,12.22.37,3.39.7,6.78.76,10.19-.2,7.49.74,14.92.65,22.4-.2,7.67.36,15.32.59,23-.14,5.22.65,10.4.61,15.62,0,12.49.14,25,0,37.49a131.7,131.7,0,0,0-.6,13.47c-.24,1.94-.42,3.89-.71,5.82.35,1.73.52,3.49.71,5.24a2.06,2.06,0,0,1,.32,1.13v1.12c1.5.13,3,.25,4.51.34,6.8-.87,36.28.62,44,.81,6.63.72,26.26-.79,29.43-1.1,7.91-1.34,20.18-2.37,24.71-4.42,1.27-.57,13.79-4.62,15.73-5.15,12-3.78,20.92-13.41,26.78-24.24,2.41-5.07,3.07-10.74,3.36-16.27a72.75,72.75,0,0,0-1-22.62C1011.19,114.63,1008.94,112.08,1007.05,109.36Zm-54.63,35.88c-2.34.89-25.85,1.22-30.16,1.49a17.59,17.59,0,0,0-5.57.58c0-2.76-.67-23.27-.66-30.42h0a39.15,39.15,0,0,1,6.84-.27c23.75-1.52,30.25,4.41,32,10.61.81,2.36,0,6.11,0,8.8a64.35,64.35,0,0,1-1.25,8.6S952.43,145.24,952.42,145.24ZM931.06,80.52a50.08,50.08,0,0,0-8.66.2c-1.72.3-4.77.26-4.69-.27-.11-8.27.11-16.54.07-24.82a57.78,57.78,0,0,0-.34-10.71,2.26,2.26,0,0,1,.2.13h3a82.79,82.79,0,0,1,13.81.67c4.73.38,10.21,1.55,14,6.3,3,4.42,3.41,8.39,3.45,13C951.34,80.08,933.88,80.63,931.06,80.52Zm-55.92,1.35c0-1.94,0-3.87,0-5.81.06-2.13,0-4.26-.17-6.39l1.08-.89Q875.57,75.32,875.14,81.87Zm114.17,5.22-.14.07.38-.57c.41-.42.8-.86,1.2-1.29-.33.62-.52,1-.67,1.27Z"/><path class="cls-1" d="M1065.89,13.36a9,9,0,0,0-.85.63C1065.32,13.78,1065.61,13.58,1065.89,13.36Z"/><path class="cls-1" d="M1194.65,79.26c-.14-2.44-1.2-12-1.27-14.43a49.85,49.85,0,0,0-4-21.52,73.06,73.06,0,0,0-9.81-19.48,38.16,38.16,0,0,0-7.46-6.84c-2.62-1.57-5.52-2.6-8.22-4a133,133,0,0,0-26.35-10c-6.54-1.83-13.2-3.23-20-2.89a116.45,116.45,0,0,0-19.31,1c-3.5.55-7.11.41-10.56,1.3-7.7,2.61-15.28,6-21.78,11,.3-.2.45-.28-.05,0a84.78,84.78,0,0,0-8.07,6.42l-.73.46c-.45.24-1.13.63-1.48.83a51.82,51.82,0,0,0-13.84,12.69,67,67,0,0,0-6.06,8.59c-2.56,4.65-4.56,9.58-6.94,14.32-3.14,7.33-5,11.78-5.66,20.59a129,129,0,0,0-1.27,27.2c.38,2.56,2.24,13.89,2.67,15a63.91,63.91,0,0,0,3.18,11.48c1.09,3.66,5.49,15.53,6.8,17.69a105,105,0,0,0,6.54,9.49c.8,1.46,12.34,16.09,13.17,17a41.56,41.56,0,0,0,3.76,4.4c2.14,2.41,11.77,6.43,14.54,7.15a57.2,57.2,0,0,0,15.21,5.12c6,.76,18.51.51,18.62.52l.21,0c1.31.39,31.35,1.91,41.88-6.1,9.34-4.57,19.33-13.28,23-17.51.49-.52,7.93-9.79,10.94-14.29,7.55-11.25,11.87-44.48,12.48-50.42A80.32,80.32,0,0,0,1194.65,79.26Zm-46.28,57.05c-.73,1.86-1.48,3.7-2.23,5.55l-.44.41.21-1c.32-1,.65-1.91,1-2.87C1147.36,137.77,1147.86,137.07,1148.37,136.31Zm-27.23,7.6c-4.22,1.83-5.91,2.77-10.05,3.4-.64-.14-1.26-.29-1.88-.48-7.16-2.44-13.36-7.28-18.64-12.6-6.88-7.95-8.42-16.83-9.45-26.41a164.85,164.85,0,0,1,.7-23c.22-4.56.54-9.12.87-13.67a8.3,8.3,0,0,1,.25-3.82c0-.24,0-.47.07-.7,0-.59.09-1.18.13-1.77l.36-.28a10.4,10.4,0,0,1,2.11-3.53,24.36,24.36,0,0,1,3.3-3.05,25.74,25.74,0,0,1,3.88-3.24,15.26,15.26,0,0,1,3.84-1.9,1.53,1.53,0,0,0,.18-.18,32.05,32.05,0,0,1,10.77-1.22c6.23.73,10.78.45,15.82,4,5.1,4.37,8.48,10.6,10.43,17,1,13.19,2.23,26.42,1.55,39.66-.27,10.09-2.06,19.77-6,27A47.74,47.74,0,0,1,1121.14,143.91Zm8.88,10.58-.75,1.92-.46.24c0-.38,0-.76,0-1.12C1129.21,155.19,1129.62,154.85,1130,154.49ZM1055,26.17l-.56.55,1-.92c-.14.08-.13,0,.28-.24l.14-.13,0,0-.06,0,0,0-.28.24a1.39,1.39,0,0,0,.25-.17c-1.55,1.85-3.05,3.76-4.49,5.69-.14.17-.26.35-.4.52A27.42,27.42,0,0,1,1055,26.17Z"/><path class="cls-1" d="M171.5,159.64s0,0,0,0a101.3,101.3,0,0,1-4.38-16.83c-.07-.42-14.48-42.93-16-51-.16-1.25-6.12-21.47-7.69-26.51-2-7.46-9.23-36.12-11.17-42.54-1.36-5.41-4.63-10.33-5.24-15.85a.41.41,0,0,0-.37-.36c-1.22-.09-5.49-.42-6.59-.48H120c-3.57.84-20.55.47-26.38.11C89,5.93,75,5.07,72.55,5a71,71,0,0,0-8.12-.47c-1.24,0-4,0-5.14.76a.41.41,0,0,0-.14.15c-2.46,4.18-8.49,19.14-9.72,23.17-.31,1-4.51,16.43-6.15,23.2,0,0,0,0,0,0-.8,2.29-11.8,32.89-14.57,43.61v0c-3.62,10.07-5,18.81-8.06,28.28-1,3.86-7.37,21.33-8.89,25.06-2.72,7-3.61,10-6,16.64v0c-.78,2.73-5,16-5.72,19.4a2,2,0,0,0,.57,1.93c4.42.61,13.06,1,13.07,1,7.81.47,36.5,1,43.67,1.4a.38.38,0,0,0,.38-.25c.76-2,3.58-14.54,4.41-17.76s1.39-6.31,2.15-9.45c.13-.63.28-1.26.43-1.89.48,0,4.85.08,5.22.1,7.23.15,14.44-.2,21.66-.21h0c1.67.19,8.6,1,10.49.79,3.07-.39,6-.35,9-.6h.12a.9.9,0,0,1,.57.47c1.47,4.39,2.16,25.23,2.94,26.65.17.5-.19,1.17.25,1.51,1.29.35,13.9-.67,15.27-.39h.08c5.7-.43,11.61-.14,17.32-.3,5.19-.14,22.7-.41,26.69-.28.1,0,1.89-.25,2-.31.87-.72-.2-1.86.59-2.68a.38.38,0,0,0,.1-.38,79,79,0,0,1-1.41-8,.11.11,0,0,0,0-.06C175.27,175.1,172.41,164.29,171.5,159.64Zm-69.34-45a46.35,46.35,0,0,1-10.1-1.21c-5.14.08-10.34-.28-15.44.43a2.68,2.68,0,0,1-2.37-.71c2-6.67,3.73-13,5.08-17.51,0,0,9-35.58,9.36-37,.07-.25.14-.5.2-.75.19.54,5.85,18.4,8.69,31.1a0,0,0,0,1,0,0c2.11,8.48,4.93,18.43,6.25,25.62C103.28,114.58,102.72,114.59,102.16,114.59Z"/></g></g></svg>